<svg xmlns="http://www.w3.org/2000/svg" xmlns:xlink="http://www.w3.org/1999/xlink" width="407" height="108" viewBox="0 0 407 108">
    <defs>
        <path id="b" d="M553.6 107.5c5.133 0 9.783 1.217 13.95 3.65s7.467 5.767 9.9 10c2.433 4.233 3.65 8.95 3.65 14.15v22.3c0 1.467-.483 2.683-1.45 3.65-.967.967-2.183 1.45-3.65 1.45s-2.683-.483-3.65-1.45c-.967-.967-1.45-2.183-1.45-3.65v-3.7a24.498 24.498 0 0 1-8.5 6.7c-3.333 1.6-6.933 2.4-10.8 2.4-4.8 0-9.15-1.2-13.05-3.6-3.9-2.4-6.967-5.717-9.2-9.95-2.233-4.233-3.35-8.95-3.35-14.15 0-5.2 1.2-9.917 3.6-14.15 2.4-4.233 5.717-7.567 9.95-10s8.917-3.65 14.05-3.65zm0 46.5c3.333 0 6.35-.817 9.05-2.45 2.7-1.633 4.817-3.867 6.35-6.7 1.533-2.833 2.3-6.017 2.3-9.55 0-3.533-.767-6.733-2.3-9.6s-3.65-5.117-6.35-6.75c-2.7-1.633-5.717-2.45-9.05-2.45-3.333 0-6.35.817-9.05 2.45-2.7 1.633-4.833 3.883-6.4 6.75-1.567 2.867-2.35 6.067-2.35 9.6 0 3.533.783 6.717 2.35 9.55 1.567 2.833 3.7 5.067 6.4 6.7s5.717 2.45 9.05 2.45zm58-46.5c7.867 0 14.4 3 19.6 9 .667.733 1 1.6 1 2.6 0 1.467-.733 2.7-2.2 3.7-.667.467-1.433.7-2.3.7-1.533 0-2.833-.6-3.9-1.8-1.667-1.8-3.483-3.117-5.45-3.95-1.967-.833-4.217-1.25-6.75-1.25-5.133 0-9.3 1.717-12.5 5.15-3.2 3.433-4.8 7.983-4.8 13.65 0 3.6.75 6.817 2.25 9.65s3.6 5.05 6.3 6.65c2.7 1.6 5.783 2.4 9.25 2.4 4.533 0 8.2-1.167 11-3.5 1.267-.933 2.5-1.4 3.7-1.4.933 0 1.8.3 2.6.9 1.267 1.067 1.9 2.267 1.9 3.6 0 1-.4 1.9-1.2 2.7-4.8 4.467-10.8 6.7-18 6.7-5.267 0-10-1.2-14.2-3.6-4.2-2.4-7.483-5.717-9.85-9.95s-3.55-8.95-3.55-14.15c0-5.333 1.15-10.117 3.45-14.35 2.3-4.233 5.517-7.533 9.65-9.9s8.8-3.55 14-3.55zm51.6 0c5.133 0 9.783 1.217 13.95 3.65s7.467 5.767 9.9 10c2.433 4.233 3.65 8.95 3.65 14.15v45.6c0 1.533-.467 2.767-1.4 3.7-.933.933-2.167 1.4-3.7 1.4-1.467 0-2.683-.467-3.65-1.4-.967-.933-1.45-2.167-1.45-3.7v-27a24.498 24.498 0 0 1-8.5 6.7c-3.333 1.6-6.933 2.4-10.8 2.4-4.8 0-9.15-1.2-13.05-3.6-3.9-2.4-6.967-5.717-9.2-9.95-2.233-4.233-3.35-8.95-3.35-14.15 0-5.2 1.2-9.917 3.6-14.15 2.4-4.233 5.717-7.567 9.95-10s8.917-3.65 14.05-3.65zm0 46.5c3.333 0 6.35-.817 9.05-2.45 2.7-1.633 4.817-3.867 6.35-6.7 1.533-2.833 2.3-6.017 2.3-9.55 0-3.533-.767-6.733-2.3-9.6s-3.65-5.117-6.35-6.75c-2.7-1.633-5.717-2.45-9.05-2.45-3.333 0-6.35.817-9.05 2.45-2.7 1.633-4.833 3.883-6.4 6.75-1.567 2.867-2.35 6.067-2.35 9.6 0 3.533.783 6.717 2.35 9.55 1.567 2.833 3.7 5.067 6.4 6.7s5.717 2.45 9.05 2.45zm81.6-46.2c1.533 0 2.767.467 3.7 1.4.933.933 1.4 2.167 1.4 3.7v44.6c0 1.467-.467 2.683-1.4 3.65-.933.967-2.167 1.45-3.7 1.45-1.467 0-2.683-.483-3.65-1.45-.967-.967-1.45-2.183-1.45-3.65v-1.1c-2.133 2.133-4.667 3.783-7.6 4.95-2.933 1.167-6.067 1.75-9.4 1.75-4.6 0-8.733-1-12.4-3s-6.533-4.917-8.6-8.75c-2.067-3.833-3.1-8.45-3.1-13.85v-24.6c0-1.467.483-2.683 1.45-3.65.967-.967 2.183-1.45 3.65-1.45s2.683.483 3.65 1.45c.967.967 1.45 2.183 1.45 3.65v24.6c0 5.4 1.45 9.483 4.35 12.25 2.9 2.767 6.75 4.15 11.55 4.15 2.8 0 5.35-.567 7.65-1.7 2.3-1.133 4.1-2.667 5.4-4.6 1.3-1.933 1.95-4.1 1.95-6.5v-28.2c0-1.533.483-2.767 1.45-3.7.967-.933 2.183-1.4 3.65-1.4zm38.9-.3c5.133 0 9.783 1.217 13.95 3.65s7.467 5.767 9.9 10c2.433 4.233 3.65 8.95 3.65 14.15v22.3c0 1.467-.483 2.683-1.45 3.65-.967.967-2.183 1.45-3.65 1.45s-2.683-.483-3.65-1.45c-.967-.967-1.45-2.183-1.45-3.65v-3.7a24.498 24.498 0 0 1-8.5 6.7c-3.333 1.6-6.933 2.4-10.8 2.4-4.8 0-9.15-1.2-13.05-3.6-3.9-2.4-6.967-5.717-9.2-9.95-2.233-4.233-3.35-8.95-3.35-14.15 0-5.2 1.2-9.917 3.6-14.15 2.4-4.233 5.717-7.567 9.95-10s8.917-3.65 14.05-3.65zm0 46.5c3.333 0 6.35-.817 9.05-2.45 2.7-1.633 4.817-3.867 6.35-6.7 1.533-2.833 2.3-6.017 2.3-9.55 0-3.533-.767-6.733-2.3-9.6s-3.65-5.117-6.35-6.75c-2.7-1.633-5.717-2.45-9.05-2.45-3.333 0-6.35.817-9.05 2.45-2.7 1.633-4.833 3.883-6.4 6.75-1.567 2.867-2.35 6.067-2.35 9.6 0 3.533.783 6.717 2.35 9.55 1.567 2.833 3.7 5.067 6.4 6.7s5.717 2.45 9.05 2.45zm34.7-41c0-1.533.483-2.767 1.45-3.7.967-.933 2.183-1.4 3.65-1.4 1.533 0 2.767.467 3.7 1.4.933.933 1.4 2.167 1.4 3.7v44.5c0 1.467-.467 2.683-1.4 3.65-.933.967-2.167 1.45-3.7 1.45-1.467 0-2.683-.483-3.65-1.45-.967-.967-1.45-2.183-1.45-3.65V113zm5.1-27.2c1.8 0 3.35.65 4.65 1.95 1.3 1.3 1.95 2.85 1.95 4.65 0 1.8-.65 3.35-1.95 4.65-1.3 1.3-2.85 1.95-4.65 1.95-1.8 0-3.35-.65-4.65-1.95-1.3-1.3-1.95-2.85-1.95-4.65 0-1.8.65-3.35 1.95-4.65 1.3-1.3 2.85-1.95 4.65-1.95zm42.3 21.6c4.6 0 8.733 1 12.4 3s6.533 4.917 8.6 8.75c2.067 3.833 3.1 8.45 3.1 13.85v24.6c0 1.467-.483 2.683-1.45 3.65-.967.967-2.183 1.45-3.65 1.45s-2.683-.483-3.65-1.45c-.967-.967-1.45-2.183-1.45-3.65V133c0-5.4-1.45-9.483-4.35-12.25-2.9-2.767-6.75-4.15-11.55-4.15-2.8 0-5.35.567-7.65 1.7-2.3 1.133-4.1 2.667-5.4 4.6-1.3 1.933-1.95 4.1-1.95 6.5v28.2c0 1.467-.467 2.683-1.4 3.65-.933.967-2.167 1.45-3.7 1.45-1.467 0-2.683-.483-3.65-1.45-.967-.967-1.45-2.183-1.45-3.65V113c0-1.533.483-2.767 1.45-3.7.967-.933 2.183-1.4 3.65-1.4 1.533 0 2.767.467 3.7 1.4.933.933 1.4 2.167 1.4 3.7v1.1c2.133-2.133 4.667-3.783 7.6-4.95 2.933-1.167 6.067-1.75 9.4-1.75zm55.3 45.2c1.2 0 2.217.467 3.05 1.4.833.933 1.25 2.133 1.25 3.6s-.55 2.667-1.65 3.6c-1.1.933-2.517 1.4-4.25 1.4h-1.8c-3.267 0-6.25-.85-8.95-2.55-2.7-1.7-4.817-4.017-6.35-6.95-1.533-2.933-2.3-6.233-2.3-9.9v-24.7h-4.6c-1.4 0-2.533-.4-3.4-1.2-.867-.8-1.3-1.8-1.3-3 0-1.333.433-2.4 1.3-3.2.867-.8 2-1.2 3.4-1.2h4.6V95.5c0-1.467.467-2.667 1.4-3.6.933-.933 2.133-1.4 3.6-1.4s2.667.467 3.6 1.4c.933.933 1.4 2.133 1.4 3.6v14.4h8.5c1.4 0 2.533.4 3.4 1.2.867.8 1.3 1.867 1.3 3.2 0 1.2-.433 2.2-1.3 3-.867.8-2 1.2-3.4 1.2h-8.5v24.7c0 2.667.733 4.9 2.2 6.7 1.467 1.8 3.267 2.7 5.4 2.7h3.4z"/>
        <filter id="a" width="103.5%" height="114%" x="-1.8%" y="-5%" filterUnits="objectBoundingBox">
            <feOffset dy="2" in="SourceAlpha" result="shadowOffsetOuter1"/>
            <feGaussianBlur in="shadowOffsetOuter1" result="shadowBlurOuter1" stdDeviation="2"/>
            <feColorMatrix in="shadowBlurOuter1" values="0 0 0 0 0 0 0 0 0 0 0 0 0 0 0 0 0 0 0.178866621 0"/>
        </filter>
    </defs>
    <g fill="none" fill-rule="evenodd" transform="translate(-522 -84)">
        <use fill="#000" filter="url(#a)" xlink:href="#b"/>
        <use fill="#FFF" xlink:href="#b"/>
    </g>
</svg>
