<?xml version="1.0" encoding="UTF-8"?>
<svg width="408px" height="108px" viewBox="0 0 408 108" version="1.1" xmlns="http://www.w3.org/2000/svg" xmlns:xlink="http://www.w3.org/1999/xlink">
    <!-- Generator: Sketch 52.3 (67297) - http://www.bohemiancoding.com/sketch -->
    <title>Acquaint Copy</title>
    <desc>Created with Sketch.</desc>
    <defs>
        <path d="M71.8,78.9 C76.933359,78.9 81.5833125,80.1166545 85.75,82.55 C89.9166875,84.9833455 93.2166545,88.3166455 95.65,92.55 C98.0833455,96.7833545 99.3,101.499974 99.3,106.7 L99.3,129 C99.3,130.466674 98.8166715,131.683329 97.85,132.65 C96.8833285,133.616672 95.666674,134.1 94.2,134.1 C92.733326,134.1 91.5166715,133.616672 90.55,132.65 C89.5833285,131.683329 89.1,130.466674 89.1,129 L89.1,125.3 C86.766655,128.166681 83.93335,130.399992 80.6,132 C77.26665,133.600008 73.666686,134.4 69.8,134.4 C64.999976,134.4 60.6500195,133.200012 56.75,130.8 C52.8499805,128.399988 49.7833445,125.083355 47.55,120.85 C45.3166555,116.616646 44.2,111.900026 44.2,106.7 C44.2,101.499974 45.399988,96.7833545 47.8,92.55 C50.200012,88.3166455 53.5166455,84.9833455 57.75,82.55 C61.9833545,80.1166545 66.666641,78.9 71.8,78.9 Z M71.8,125.4 C75.13335,125.4 78.1499865,124.583342 80.85,122.95 C83.5500135,121.316659 85.666659,119.083348 87.2,116.25 C88.733341,113.416653 89.5,110.233351 89.5,106.7 C89.5,103.166649 88.733341,99.966681 87.2,97.1 C85.666659,94.233319 83.5500135,91.9833415 80.85,90.35 C78.1499865,88.7166585 75.13335,87.9 71.8,87.9 C68.46665,87.9 65.4500135,88.7166585 62.75,90.35 C60.0499865,91.9833415 57.9166745,94.233319 56.35,97.1 C54.7833255,99.966681 54,103.166649 54,106.7 C54,110.233351 54.7833255,113.416653 56.35,116.25 C57.9166745,119.083348 60.0499865,121.316659 62.75,122.95 C65.4500135,124.583342 68.46665,125.4 71.8,125.4 Z M129.8,78.9 C137.666706,78.9 144.199974,81.89997 149.4,87.9 C150.06667,88.633337 150.4,89.499995 150.4,90.5 C150.4,91.966674 149.666674,93.199995 148.2,94.2 C147.53333,94.666669 146.766671,94.9 145.9,94.9 C144.366659,94.9 143.066672,94.300006 142,93.1 C140.333325,91.299991 138.516676,89.9833375 136.55,89.15 C134.583323,88.3166625 132.333346,87.9 129.8,87.9 C124.666641,87.9 120.500016,89.6166495 117.3,93.05 C114.099984,96.4833505 112.5,101.033305 112.5,106.7 C112.5,110.300018 113.249992,113.516653 114.75,116.35 C116.250007,119.183348 118.349986,121.399992 121.05,123 C123.750013,124.600008 126.833316,125.4 130.3,125.4 C134.833356,125.4 138.499986,124.233345 141.3,121.9 C142.566673,120.966662 143.799994,120.5 145,120.5 C145.933338,120.5 146.799996,120.799997 147.6,121.4 C148.866673,122.466672 149.5,123.66666 149.5,125 C149.5,126.000005 149.100004,126.899996 148.3,127.7 C143.499976,132.166689 137.500036,134.4 130.3,134.4 C125.033307,134.4 120.300021,133.200012 116.1,130.8 C111.899979,128.399988 108.616678,125.083355 106.25,120.85 C103.883321,116.616646 102.7,111.900026 102.7,106.7 C102.7,101.36664 103.849988,96.5833545 106.15,92.35 C108.450011,88.1166455 111.666646,84.8166785 115.8,82.45 C119.933354,80.0833215 124.599974,78.9 129.8,78.9 Z M181.4,78.9 C186.533359,78.9 191.183312,80.1166545 195.35,82.55 C199.516687,84.9833455 202.816654,88.3166455 205.25,92.55 C207.683345,96.7833545 208.9,101.499974 208.9,106.7 L208.9,152.3 C208.9,153.833341 208.433338,155.066662 207.5,156 C206.566662,156.933338 205.333341,157.4 203.8,157.4 C202.333326,157.4 201.116671,156.933338 200.15,156 C199.183328,155.066662 198.7,153.833341 198.7,152.3 L198.7,125.3 C196.366655,128.166681 193.53335,130.399992 190.2,132 C186.86665,133.600008 183.266686,134.4 179.4,134.4 C174.599976,134.4 170.250019,133.200012 166.35,130.8 C162.44998,128.399988 159.383344,125.083355 157.15,120.85 C154.916655,116.616646 153.8,111.900026 153.8,106.7 C153.8,101.499974 154.999988,96.7833545 157.4,92.55 C159.800012,88.3166455 163.116645,84.9833455 167.35,82.55 C171.583354,80.1166545 176.266641,78.9 181.4,78.9 Z M181.4,125.4 C184.73335,125.4 187.749986,124.583342 190.45,122.95 C193.150013,121.316659 195.266659,119.083348 196.8,116.25 C198.333341,113.416653 199.1,110.233351 199.1,106.7 C199.1,103.166649 198.333341,99.966681 196.8,97.1 C195.266659,94.233319 193.150013,91.9833415 190.45,90.35 C187.749986,88.7166585 184.73335,87.9 181.4,87.9 C178.06665,87.9 175.050013,88.7166585 172.35,90.35 C169.649986,91.9833415 167.516674,94.233319 165.95,97.1 C164.383325,99.966681 163.6,103.166649 163.6,106.7 C163.6,110.233351 164.383325,113.416653 165.95,116.25 C167.516674,119.083348 169.649986,121.316659 172.35,122.95 C175.050013,124.583342 178.06665,125.4 181.4,125.4 Z M263,79.2 C264.533341,79.2 265.766662,79.666662 266.7,80.6 C267.633338,81.533338 268.1,82.766659 268.1,84.3 L268.1,128.9 C268.1,130.366674 267.633338,131.583328 266.7,132.55 C265.766662,133.516672 264.533341,134 263,134 C261.533326,134 260.316671,133.516672 259.35,132.55 C258.383328,131.583328 257.9,130.366674 257.9,128.9 L257.9,127.8 C255.766656,129.933344 253.233348,131.583328 250.3,132.75 C247.366652,133.916673 244.23335,134.5 240.9,134.5 C236.299977,134.5 232.166685,133.50001 228.5,131.5 C224.833315,129.49999 221.966677,126.583353 219.9,122.75 C217.833323,118.916648 216.8,114.300027 216.8,108.9 L216.8,84.3 C216.8,82.833326 217.283328,81.6166715 218.25,80.65 C219.216671,79.6833285 220.433326,79.2 221.9,79.2 C223.366674,79.2 224.583328,79.6833285 225.55,80.65 C226.516671,81.6166715 227,82.833326 227,84.3 L227,108.9 C227,114.300027 228.449985,118.38332 231.35,121.15 C234.250014,123.916681 238.099976,125.3 242.9,125.3 C245.700014,125.3 248.249988,124.733339 250.55,123.6 C252.850011,122.466661 254.649993,120.933343 255.95,119 C257.250006,117.066657 257.9,114.900012 257.9,112.5 L257.9,84.3 C257.9,82.766659 258.383328,81.533338 259.35,80.6 C260.316671,79.666662 261.533326,79.2 263,79.2 Z M301.9,78.9 C307.033359,78.9 311.683312,80.1166545 315.85,82.55 C320.016687,84.9833455 323.316654,88.3166455 325.75,92.55 C328.183345,96.7833545 329.4,101.499974 329.4,106.7 L329.4,129 C329.4,130.466674 328.916671,131.683329 327.95,132.65 C326.983328,133.616672 325.766674,134.1 324.3,134.1 C322.833326,134.1 321.616671,133.616672 320.65,132.65 C319.683328,131.683329 319.2,130.466674 319.2,129 L319.2,125.3 C316.866655,128.166681 314.03335,130.399992 310.7,132 C307.36665,133.600008 303.766686,134.4 299.9,134.4 C295.099976,134.4 290.750019,133.200012 286.85,130.8 C282.94998,128.399988 279.883344,125.083355 277.65,120.85 C275.416655,116.616646 274.3,111.900026 274.3,106.7 C274.3,101.499974 275.499988,96.7833545 277.9,92.55 C280.300012,88.3166455 283.616645,84.9833455 287.85,82.55 C292.083354,80.1166545 296.766641,78.9 301.9,78.9 Z M301.9,125.4 C305.23335,125.4 308.249986,124.583342 310.95,122.95 C313.650013,121.316659 315.766659,119.083348 317.3,116.25 C318.833341,113.416653 319.6,110.233351 319.6,106.7 C319.6,103.166649 318.833341,99.966681 317.3,97.1 C315.766659,94.233319 313.650013,91.9833415 310.95,90.35 C308.249986,88.7166585 305.23335,87.9 301.9,87.9 C298.56665,87.9 295.550013,88.7166585 292.85,90.35 C290.149986,91.9833415 288.016674,94.233319 286.45,97.1 C284.883325,99.966681 284.1,103.166649 284.1,106.7 C284.1,110.233351 284.883325,113.416653 286.45,116.25 C288.016674,119.083348 290.149986,121.316659 292.85,122.95 C295.550013,124.583342 298.56665,125.4 301.9,125.4 Z M336.6,84.4 C336.6,82.866659 337.083328,81.633338 338.05,80.7 C339.016671,79.766662 340.233326,79.3 341.7,79.3 C343.233341,79.3 344.466662,79.766662 345.4,80.7 C346.333338,81.633338 346.8,82.866659 346.8,84.4 L346.8,128.9 C346.8,130.366674 346.333338,131.583328 345.4,132.55 C344.466662,133.516672 343.233341,134 341.7,134 C340.233326,134 339.016671,133.516672 338.05,132.55 C337.083328,131.583328 336.6,130.366674 336.6,128.9 L336.6,84.4 Z M341.7,57.2 C343.500009,57.2 345.049993,57.8499935 346.35,59.15 C347.650006,60.4500065 348.3,61.999991 348.3,63.8 C348.3,65.600009 347.650006,67.1499935 346.35,68.45 C345.049993,69.7500065 343.500009,70.4 341.7,70.4 C339.899991,70.4 338.350006,69.7500065 337.05,68.45 C335.749993,67.1499935 335.1,65.600009 335.1,63.8 C335.1,61.999991 335.749993,60.4500065 337.05,59.15 C338.350006,57.8499935 339.899991,57.2 341.7,57.2 Z M384,78.8 C388.600023,78.8 392.733315,79.79999 396.4,81.8 C400.066685,83.80001 402.933323,86.7166475 405,90.55 C407.066677,94.3833525 408.1,98.999973 408.1,104.4 L408.1,129 C408.1,130.466674 407.616671,131.683329 406.65,132.65 C405.683328,133.616672 404.466674,134.1 403,134.1 C401.533326,134.1 400.316671,133.616672 399.35,132.65 C398.383328,131.683329 397.9,130.466674 397.9,129 L397.9,104.4 C397.9,98.999973 396.450014,94.9166805 393.55,92.15 C390.649985,89.3833195 386.800024,88 382,88 C379.199986,88 376.650011,88.566661 374.35,89.7 C372.049988,90.833339 370.250006,92.366657 368.95,94.3 C367.649993,96.233343 367,98.399988 367,100.8 L367,129 C367,130.466674 366.533338,131.683329 365.6,132.65 C364.666662,133.616672 363.433341,134.1 361.9,134.1 C360.433326,134.1 359.216671,133.616672 358.25,132.65 C357.283328,131.683329 356.8,130.466674 356.8,129 L356.8,84.4 C356.8,82.866659 357.283328,81.633338 358.25,80.7 C359.216671,79.766662 360.433326,79.3 361.9,79.3 C363.433341,79.3 364.666662,79.766662 365.6,80.7 C366.533338,81.633338 367,82.866659 367,84.4 L367,85.5 C369.133344,83.366656 371.666652,81.7166725 374.6,80.55 C377.533348,79.3833275 380.66665,78.8 384,78.8 Z M439.3,124 C440.500006,124 441.516662,124.466662 442.35,125.4 C443.183337,126.333338 443.6,127.533326 443.6,129 C443.6,130.466674 443.050005,131.666662 441.95,132.6 C440.849994,133.533338 439.433342,134 437.7,134 L435.9,134 C432.633317,134 429.650013,133.150009 426.95,131.45 C424.249986,129.749992 422.133341,127.433348 420.6,124.5 C419.066659,121.566652 418.3,118.266685 418.3,114.6 L418.3,89.9 L413.7,89.9 C412.299993,89.9 411.166671,89.500004 410.3,88.7 C409.433329,87.899996 409,86.900006 409,85.7 C409,84.36666 409.433329,83.300004 410.3,82.5 C411.166671,81.699996 412.299993,81.3 413.7,81.3 L418.3,81.3 L418.3,66.9 C418.3,65.433326 418.766662,64.233338 419.7,63.3 C420.633338,62.366662 421.833326,61.9 423.3,61.9 C424.766674,61.9 425.966662,62.366662 426.9,63.3 C427.833338,64.233338 428.3,65.433326 428.3,66.9 L428.3,81.3 L436.8,81.3 C438.200007,81.3 439.333329,81.699996 440.2,82.5 C441.066671,83.300004 441.5,84.36666 441.5,85.7 C441.5,86.900006 441.066671,87.899996 440.2,88.7 C439.333329,89.500004 438.200007,89.9 436.8,89.9 L428.3,89.9 L428.3,114.6 C428.3,117.26668 429.033326,119.499991 430.5,121.3 C431.966674,123.100009 433.766656,124 435.9,124 L439.3,124 Z" id="path-1"></path>
        <filter x="-1.8%" y="-5.0%" width="103.5%" height="114.0%" filterUnits="objectBoundingBox" id="filter-2">
            <feOffset dx="0" dy="2" in="SourceAlpha" result="shadowOffsetOuter1"></feOffset>
            <feGaussianBlur stdDeviation="2" in="shadowOffsetOuter1" result="shadowBlurOuter1"></feGaussianBlur>
            <feColorMatrix values="0 0 0 0 0   0 0 0 0 0   0 0 0 0 0  0 0 0 0.178866621 0" type="matrix" in="shadowBlurOuter1"></feColorMatrix>
        </filter>
    </defs>
    <g id="Page-1" stroke="none" stroke-width="1" fill="none" fill-rule="evenodd">
        <g id="Logotype" transform="translate(-40.000000, -55.000000)">
            <g id="Acquaint-Copy">
                <use fill="black" fill-opacity="1" filter="url(#filter-2)" xlink:href="#path-1"></use>
                <use fill="#FFFFFF" fill-rule="evenodd" xlink:href="#path-1"></use>
            </g>
        </g>
    </g>
</svg>