<svg xmlns="http://www.w3.org/2000/svg" xmlns:xlink="http://www.w3.org/1999/xlink" width="93" height="93" viewBox="0 0 93 93">
    <defs>
        <filter id="a" width="128.2%" height="128.2%" x="-14.1%" y="-14.1%" filterUnits="objectBoundingBox">
            <feOffset dy="2" in="SourceAlpha" result="shadowOffsetOuter1"/>
            <feGaussianBlur in="shadowOffsetOuter1" result="shadowBlurOuter1" stdDeviation="2"/>
            <feColorMatrix in="shadowBlurOuter1" result="shadowMatrixOuter1" values="0 0 0 0 0 0 0 0 0 0 0 0 0 0 0 0 0 0 0.181357563 0"/>
            <feMerge>
                <feMergeNode in="shadowMatrixOuter1"/>
                <feMergeNode in="SourceGraphic"/>
            </feMerge>
        </filter>
        <path id="b" d="M0 0h85v85H0z"/>
    </defs>
    <g fill="none" fill-rule="evenodd" filter="url(#a)" transform="translate(4 2)">
        <mask id="c" fill="#fff">
            <use xlink:href="#b"/>
        </mask>
        <path fill="#FFF" d="M84.733 37.782c-.134-1.195-1.527-2.094-2.732-2.094-3.895 0-7.35-2.286-8.8-5.824-1.48-3.622-.526-7.846 2.376-10.508a2.361 2.361 0 0 0 .26-3.206 42.049 42.049 0 0 0-6.734-6.8 2.367 2.367 0 0 0-3.23.262c-2.533 2.806-7.084 3.848-10.6 2.38-3.658-1.538-5.967-5.246-5.74-9.226A2.359 2.359 0 0 0 47.447.283a42.404 42.404 0 0 0-9.563-.025 2.365 2.365 0 0 0-2.103 2.433c.137 3.94-2.197 7.583-5.82 9.067-3.475 1.42-7.994.385-10.521-2.396a2.369 2.369 0 0 0-3.208-.27 42.238 42.238 0 0 0-6.875 6.798 2.364 2.364 0 0 0 .253 3.23c2.96 2.679 3.913 6.94 2.377 10.604-1.467 3.494-5.094 5.745-9.247 5.745-1.348-.044-2.307.861-2.455 2.087a42.56 42.56 0 0 0-.02 9.664c.135 1.2 1.57 2.091 2.788 2.091 3.702-.094 7.254 2.196 8.746 5.823 1.485 3.623.53 7.845-2.377 10.51a2.359 2.359 0 0 0-.258 3.202 42.182 42.182 0 0 0 6.722 6.802c.974.785 2.39.675 3.235-.256 2.544-2.812 7.093-3.853 10.596-2.383 3.669 1.535 5.976 5.243 5.75 9.224a2.359 2.359 0 0 0 2.085 2.483 42.22 42.22 0 0 0 9.562.026 2.365 2.365 0 0 0 2.104-2.434c-.142-3.94 2.197-7.582 5.816-9.063 3.497-1.428 7.996-.383 10.525 2.394a2.374 2.374 0 0 0 3.208.269 42.344 42.344 0 0 0 6.875-6.798 2.361 2.361 0 0 0-.253-3.23c-2.96-2.679-3.918-6.94-2.382-10.602 1.444-3.447 4.937-5.762 8.695-5.762l.525.014c1.22.1 2.34-.84 2.487-2.084.376-3.195.38-6.446.019-9.664zM42.567 56.767c-7.818 0-14.175-6.36-14.175-14.176 0-7.817 6.357-14.177 14.175-14.177 7.818 0 14.176 6.36 14.176 14.177 0 7.816-6.358 14.176-14.176 14.176z" mask="url(#c)"/>
    </g>
</svg>
